<svg
  xmlns="http://www.w3.org/2000/svg"
  viewBox="0 0 512 512"
  id="svg-7184"
  class="u-svg-content"
>
  <path fill="#ffbd31"
    d="m256 148c-9.953125 0-19.855469 1.375-29.433594 4.089844-5.3125 1.503906-8.398437 7.03125-6.894531 12.34375 1.503906 5.316406 7.035156 8.410156 12.347656 6.898437 7.800781-2.210937 15.871094-3.332031 23.980469-3.332031 4.570312 0 9.0625.351562 13.445312 1.027344-1.078124.800781-2.039062 1.765625-2.84375 2.886718l-64.640624 90.132813c-1.660157 2.242187-2.574219 5.003906-2.574219 7.804687 0 7.226563 5.878906 13.105469 13.105469 13.105469h22.417968l-12.65625 45.53125c-.945312 2.984375-.757812 6.148438.386719 8.9375-32.03125-13.171875-54.640625-44.707031-54.640625-81.425781 0-15.425781 4.078125-30.640625 11.792969-44 2.761719-4.78125 1.121093-10.898438-3.660157-13.660156-4.78125-2.757813-10.898437-1.121094-13.660156 3.660156-9.46875 16.394531-14.46875 35.066406-14.46875 54 0 59.550781 48.445313 108 108 108 59.550782 0 107.996094-48.449219 107.996094-108s-48.449219-108-108-108zm-30.082031 114.957031 34.265625-47.777343-5.886719 21.183593c-.839844 3.015625-.21875 6.242188 1.671875 8.730469s4.835938 3.949219 7.960938 3.949219h22.148437l-34.261719 47.777343 5.886719-21.183593c.835937-3.015625.21875-6.242188-1.671875-8.730469s-4.835938-3.949219-7.960938-3.949219zm30.082031 81.042969c-4.570312 0-9.0625-.351562-13.445312-1.027344 1.078124-.800781 2.039062-1.765625 2.84375-2.886718l64.636718-90.128907c1.664063-2.246093 2.578125-5.011719 2.578125-7.808593 0-7.226563-5.878906-13.105469-13.105469-13.105469h-22.417968l12.65625-45.527344c.945312-2.988281.757812-6.152344-.386719-8.941406 32.027344 13.171875 54.640625 44.703125 54.640625 81.425781 0 48.523438-39.476562 88-88 88zm0 0"
  ></path>
  <path fill="#ffbd31"
    d="m396 266h86c5.519531 0 10-4.476562 10-10v-51.105469c11.640625-4.125 20-15.242187 20-28.277343 0-16.542969-13.457031-30-30-30s-30 13.457031-30 30c0 13.035156 8.359375 24.152343 20 28.277343v41.105469h-76v-85.464844h26c5.523438 0 10-4.476562 10-10v-45.636718c11.640625-4.128907 20-15.246094 20-28.28125 0-16.542969-13.457031-30-30-30s-30 13.457031-30 30c0 13.035156 8.363281 24.152343 20 28.28125v35.636718h-19.820312c-6.640626-14.460937-21.25-24.535156-38.179688-24.535156h-88v-20.464844h40c5.519531 0 10-4.476562 10-10v-27.253906c11.640625-4.128906 20-15.246094 20-28.28125 0-16.542969-13.457031-30-30-30s-30 13.457031-30 30c0 13.035156 8.359375 24.152344 20 28.28125v17.253906h-40c-5.523438 0-10 4.476563-10 10v30.464844h-41.792969v-63.714844c0-5.519531-4.476562-10-10-10h-22.648437c-4.128906-11.636718-15.242188-20-28.277344-20-16.542969 0-30 13.460938-30 30 0 16.542969 13.457031 30 30 30 13.035156 0 24.148438-8.359375 28.277344-20h12.648437v53.714844h-26.207031c-23.160156 0-42 18.839844-42 42v85.523438h-41v-82.957032c11.636719-4.128906 20-15.242187 20-28.28125 0-16.542968-13.457031-30-30-30s-30 13.457032-30 30c0 13.035156 8.359375 24.152344 20 28.28125v92.957032c0 5.523437 4.476562 10 10 10h51v22.476562h-86c-5.523438 0-10 4.476562-10 10v51.105469c-11.640625 4.125-20 15.242187-20 28.277343 0 16.542969 13.457031 30 30 30s30-13.457031 30-30c0-13.035156-8.359375-24.152343-20-28.277343v-41.105469h76v29.714844h-16c-5.523438 0-10 4.476562-10 10v71.386718c-11.640625 4.128907-20 15.246094-20 28.28125 0 16.542969 13.457031 30 30 30s30-13.457031 30-30c0-13.035156-8.363281-24.152343-20-28.28125v-61.386718h6c.015625 0 .027344-.003906.042969-.003906.902343 22.367187 19.371093 40.289062 41.957031 40.289062h88v20.464844h-40c-5.523438 0-10 4.476562-10 10v27.253906c-11.640625 4.128906-20 15.246094-20 28.28125 0 16.542969 13.457031 30 30 30s30-13.457031 30-30c0-13.035156-8.359375-24.152344-20-28.28125v-17.253906h40c5.523438 0 10-4.476563 10-10v-30.464844h52.296875v25.199219c0 5.519531 4.480469 10 10 10 5.523437 0 10-4.480469 10-10v-25.199219h15.703125c23.15625 0 42-18.839844 42-42v-12.214844h38c4.128906 11.640625 15.242188 20 28.277344 20 16.542968 0 30-13.457031 30-30 0-16.542968-13.457032-30-30-30-13.035156 0-24.148438 8.363282-28.277344 20h-38zm86-99.382812c5.515625 0 10 4.484374 10 10 0 5.507812-4.480469 9.992187-9.992188 10 0 0-.003906 0-.007812 0s-.007812 0-.011719 0c-5.507812-.007813-9.988281-4.492188-9.988281-10 0-5.515626 4.484375-10 10-10zm-60-100c5.515625 0 10 4.484374 10 10 0 5.511718-4.484375 10-10 10-5.511719 0-10-4.488282-10-10 0-5.515626 4.488281-10 10-10zm-116-46.617188c5.515625 0 10 4.484375 10 10s-4.484375 10-10 10-10-4.484375-10-10 4.484375-10 10-10zm-162.71875 42.285156c-5.515625 0-10-4.484375-10-10 0-5.511718 4.484375-10 10-10 5.511719 0 9.996094 4.484375 10 9.996094v.003906.007813c-.003906 5.511719-4.488281 9.992187-10 9.992187zm-78.28125 60c5.515625 0 10 4.488282 10 10 0 5.515625-4.484375 10-10 10s-10-4.484375-10-10c0-5.511718 4.484375-10 10-10zm-35 263.097656c-5.515625 0-10-4.484374-10-10 0-5.511718 4.484375-10 10-10s10 4.488282 10 10c0 5.515626-4.484375 10-10 10zm70 70c-5.515625 0-10-4.484374-10-10 0-5.511718 4.484375-10 10-10 5.511719 0 10 4.488282 10 10 0 5.515626-4.484375 10-10 10zm106 36.617188c-5.515625 0-10-4.484375-10-10s4.484375-10 10-10 10 4.484375 10 10-4.484375 10-10 10zm256.28125-170.214844c5.511719 0 10 4.488282 10 10 0 5.515625-4.488281 10-10 10-5.515625 0-10-4.484375-10-10 0-5.511718 4.484375-10 10-10zm-86.28125 32.214844c0 12.128906-9.871094 22-22 22h-196c-12.128906 0-22-9.871094-22-22v-196c0-12.128906 9.871094-22 22-22h196c12.128906 0 22 9.871094 22 22zm0 0"
  ></path>
  <path fill="#ffbd31"
    d="m438.296875 442.585938v-21.386719c0-5.523438-4.476563-10-10-10h-31.03125c-5.523437 0-10 4.476562-10 10 0 5.519531 4.476563 10 10 10h21.03125v11.386719c-11.636719 4.128906-20 15.242187-20 28.28125 0 16.539062 13.460937 30 30 30 16.542969 0 30-13.460938 30-30 0-13.035157-8.359375-24.152344-20-28.28125zm-10 38.28125c-5.511719 0-10-4.488282-10-10 0-5.515626 4.488281-10 10-10 5.515625 0 10 4.484374 10 10 0 5.511718-4.484375 10-10 10zm0 0"
  ></path>
  <path fill="#ffbd31"
    d="m368.535156 411.199219h-.269531c-5.523437 0-10 4.476562-10 10 0 5.519531 4.476563 10 10 10h.269531c5.519532 0 10-4.480469 10-10 0-5.523438-4.480468-10-10-10zm0 0"
  ></path>
  <path fill="#ffbd31"
    d="m189.199219 194.292969c2.433593 0 4.875-.882813 6.800781-2.664063 4.085938-3.714844 4.386719-10.042968.671875-14.128906s-10.039063-4.386719-14.125-.671875c-.03125.023437-.125.113281-.152344.140625-4.046875 3.75-4.285156 10.070312-.535156 14.121094 1.972656 2.125 4.652344 3.203125 7.339844 3.203125zm0 0"
  ></path>
</svg>
