<svg
  xmlns="http://www.w3.org/2000/svg"
  xmlns:xlink="http://www.w3.org/1999/xlink"
  version="1.1"
  id="svg-96fe"
  x="0px"
  y="0px"
  viewBox="0 0 512 512"
  style="enable-background: new 0 0 512 512"
  xml:space="preserve"
  class="u-svg-content"
>
  <g>
    <g>
      <g>
        <path fill="#ffbd31"
          d="M233.091,69.818c6.982,0,11.636-4.655,11.636-11.636V11.636C244.727,4.655,240.073,0,233.091,0     s-11.636,4.655-11.636,11.636v46.545C221.455,65.164,226.109,69.818,233.091,69.818z"
        ></path>
        <path fill="#ffbd31"
          d="M174.909,128c6.982,0,11.636-4.655,11.636-11.636s-4.655-11.636-11.636-11.636h-46.545     c-6.982,0-11.636,4.655-11.636,11.636S121.382,128,128.364,128H174.909z"
        ></path>
        <path fill="#ffbd31"
          d="M273.818,87.273c3.491,0,5.818-1.164,8.146-3.491L314.545,51.2c4.655-4.655,4.655-11.636,0-16.291     c-4.655-4.655-11.636-4.655-16.291,0l-32.582,32.582c-4.655,4.655-4.655,11.636,0,16.291     C268,86.109,271.491,87.273,273.818,87.273z"
        ></path>
        <path fill="#ffbd31"
          d="M184.218,83.782c2.327,2.327,5.818,3.491,8.145,3.491s5.818-1.164,8.145-3.491c4.655-4.655,4.655-11.636,0-16.291     l-32.582-32.582c-4.655-4.655-11.636-4.655-16.291,0c-4.655,4.655-4.655,11.636,0,16.291L184.218,83.782z"
        ></path>
        <path fill="#ffbd31"
          d="M150.473,182.691c-4.655,4.655-4.655,11.636,0,16.291c2.327,2.327,5.818,3.491,8.145,3.491s5.818-1.164,8.146-3.491     l32.582-32.582c4.655-4.655,4.655-11.636,0-16.291s-11.636-4.655-16.291,0L150.473,182.691z"
        ></path>
        <path fill="#ffbd31"
          d="M265.673,148.945c-4.655,4.655-4.655,11.636,0,16.291l32.582,32.582c2.327,2.327,5.818,3.491,8.145,3.491     s5.818-1.164,8.145-3.491c4.655-4.655,4.655-11.636,0-16.291l-32.582-32.582C278.473,144.291,270.327,144.291,265.673,148.945z"
        ></path>
        <path fill="#ffbd31"
          d="M391.345,83.782c-2.327-2.327-5.818-2.327-9.309-2.327l-46.545,11.636c-5.818,1.164-9.309,5.818-9.309,11.636h-60.509     c-4.655-13.964-17.455-23.273-32.582-23.273c-19.782,0-34.909,15.127-34.909,34.909c0,15.127,9.309,27.927,23.273,32.582v29.091     c0,9.309-3.491,18.618-10.473,25.6c-8.145,8.146-12.8,17.455-15.127,27.927l-67.491,266.473     c-1.164,4.655,1.164,10.473,4.655,12.8C135.345,512,137.673,512,140,512s5.818-1.164,6.982-2.327l139.636-117.527l19.782,76.8     l-36.073-30.255c-4.655-4.655-12.8-3.491-16.291,1.164c-4.655,4.655-3.491,12.8,1.164,16.291l62.836,53.527     c2.327,2.327,4.655,2.327,6.982,2.327c2.327,0,4.655,0,5.818-2.327c4.655-2.327,5.818-8.145,4.655-12.8L265.673,217.6     c-1.164-5.818-8.145-10.473-13.964-8.145c-5.818,1.164-10.473,8.145-8.145,13.964l29.091,114.036l-65.164-65.164l9.309-37.236     c1.164-5.818,4.655-11.636,9.309-16.291c11.636-11.636,17.455-25.6,17.455-41.891v-37.236c0-6.982-4.655-11.636-11.636-11.636     s-11.636-4.655-11.636-11.636s4.655-11.636,11.636-11.636s11.636,4.655,11.636,11.636S248.218,128,255.2,128h69.818     c0,5.818,3.491,10.473,9.309,11.636l46.545,11.636c1.164,0,2.327,0,2.327,0c2.327,0,4.655-1.164,6.982-2.327     c2.327-2.327,4.655-5.818,4.655-9.309V93.091C396,89.6,394.836,86.109,391.345,83.782z M160.945,467.782l18.618-76.8     l36.073,30.255L160.945,467.782z M273.818,371.2l-40.727,34.909L192.364,371.2l40.727-40.727L273.818,371.2z M216.8,314.182     l-24.436,24.436l9.309-38.4L216.8,314.182z M372.727,124.509l-23.273-5.818v-4.655l23.273-5.818V124.509z"
        ></path>
      </g>
    </g>
  </g>
  <g></g>
  <g></g>
  <g></g>
  <g></g>
  <g></g>
  <g></g>
  <g></g>
  <g></g>
  <g></g>
  <g></g>
  <g></g>
  <g></g>
  <g></g>
  <g></g>
  <g></g>
</svg>
